<mxfile host="app.diagrams.net" modified="2022-05-04T04:31:48.346Z" agent="5.0 (Windows NT 10.0; Win64; x64) AppleWebKit/537.36 (KHTML, like Gecko) Chrome/100.0.4896.127 Safari/537.36" etag="BQtS-857Q7uWxoa6g1X-" version="17.5.0" type="github">
  <diagram id="rcTKqgZPwbxE_WOCeWBu" name="第 1 页">
    <mxGraphModel dx="782" dy="436" grid="1" gridSize="10" guides="1" tooltips="1" connect="1" arrows="1" fold="1" page="1" pageScale="1" pageWidth="827" pageHeight="1169" math="0" shadow="0">
      <root>
        <mxCell id="0" />
        <mxCell id="1" parent="0" />
        <mxCell id="Ikk_v38gaqMUWb3ELknM-4" style="edgeStyle=orthogonalEdgeStyle;rounded=0;orthogonalLoop=1;jettySize=auto;html=1;exitX=0.5;exitY=1;exitDx=0;exitDy=0;entryX=0.5;entryY=0;entryDx=0;entryDy=0;fontSize=14;" edge="1" parent="1" source="Ikk_v38gaqMUWb3ELknM-1" target="Ikk_v38gaqMUWb3ELknM-3">
          <mxGeometry relative="1" as="geometry" />
        </mxCell>
        <mxCell id="Ikk_v38gaqMUWb3ELknM-1" value="&lt;b&gt;&lt;font style=&quot;font-size: 14px&quot;&gt;Image&lt;/font&gt;&lt;/b&gt;" style="text;html=1;strokeColor=none;fillColor=none;align=center;verticalAlign=middle;whiteSpace=wrap;rounded=0;rotation=-90;" vertex="1" parent="1">
          <mxGeometry x="50" y="120" width="60" height="30" as="geometry" />
        </mxCell>
        <mxCell id="Ikk_v38gaqMUWb3ELknM-12" style="edgeStyle=orthogonalEdgeStyle;rounded=0;orthogonalLoop=1;jettySize=auto;html=1;exitX=0.5;exitY=1;exitDx=0;exitDy=0;fontSize=12;" edge="1" parent="1" source="Ikk_v38gaqMUWb3ELknM-3" target="Ikk_v38gaqMUWb3ELknM-6">
          <mxGeometry relative="1" as="geometry" />
        </mxCell>
        <mxCell id="Ikk_v38gaqMUWb3ELknM-3" value="conv 3x3" style="rounded=0;whiteSpace=wrap;html=1;fontSize=14;rotation=-90;" vertex="1" parent="1">
          <mxGeometry x="118.75" y="118.75" width="110" height="32.5" as="geometry" />
        </mxCell>
        <mxCell id="Ikk_v38gaqMUWb3ELknM-5" value="&lt;font style=&quot;font-size: 12px&quot;&gt;224x224x3&lt;/font&gt;" style="text;html=1;strokeColor=none;fillColor=none;align=center;verticalAlign=middle;whiteSpace=wrap;rounded=0;fontSize=14;rotation=-90;" vertex="1" parent="1">
          <mxGeometry x="90" y="80" width="60" height="30" as="geometry" />
        </mxCell>
        <mxCell id="Ikk_v38gaqMUWb3ELknM-14" style="edgeStyle=orthogonalEdgeStyle;rounded=0;orthogonalLoop=1;jettySize=auto;html=1;exitX=0.5;exitY=1;exitDx=0;exitDy=0;entryX=0.5;entryY=0;entryDx=0;entryDy=0;fontSize=12;" edge="1" parent="1" source="Ikk_v38gaqMUWb3ELknM-6" target="Ikk_v38gaqMUWb3ELknM-13">
          <mxGeometry relative="1" as="geometry" />
        </mxCell>
        <mxCell id="Ikk_v38gaqMUWb3ELknM-6" value="MBConv1, 3x3" style="rounded=0;whiteSpace=wrap;html=1;fontSize=14;rotation=-90;fillColor=#f5f5f5;fontColor=#333333;strokeColor=#666666;" vertex="1" parent="1">
          <mxGeometry x="190" y="118.75" width="110" height="32.5" as="geometry" />
        </mxCell>
        <mxCell id="Ikk_v38gaqMUWb3ELknM-8" value="&lt;font style=&quot;font-size: 12px&quot;&gt;112x112x32&lt;/font&gt;" style="text;html=1;strokeColor=none;fillColor=none;align=center;verticalAlign=middle;whiteSpace=wrap;rounded=0;fontSize=14;rotation=-90;" vertex="1" parent="1">
          <mxGeometry x="180" y="80" width="60" height="30" as="geometry" />
        </mxCell>
        <mxCell id="Ikk_v38gaqMUWb3ELknM-17" style="edgeStyle=orthogonalEdgeStyle;rounded=0;orthogonalLoop=1;jettySize=auto;html=1;exitX=0.5;exitY=1;exitDx=0;exitDy=0;entryX=0.5;entryY=0;entryDx=0;entryDy=0;fontSize=12;" edge="1" parent="1" source="Ikk_v38gaqMUWb3ELknM-13" target="Ikk_v38gaqMUWb3ELknM-16">
          <mxGeometry relative="1" as="geometry" />
        </mxCell>
        <mxCell id="Ikk_v38gaqMUWb3ELknM-13" value="MBConv6, 3x3" style="rounded=0;whiteSpace=wrap;html=1;fontSize=14;rotation=-90;fillColor=#f8cecc;strokeColor=#b85450;" vertex="1" parent="1">
          <mxGeometry x="262" y="118.5" width="110" height="32.5" as="geometry" />
        </mxCell>
        <mxCell id="Ikk_v38gaqMUWb3ELknM-15" value="&lt;font style=&quot;font-size: 12px&quot;&gt;112x112x16&lt;/font&gt;" style="text;html=1;strokeColor=none;fillColor=none;align=center;verticalAlign=middle;whiteSpace=wrap;rounded=0;fontSize=14;rotation=-90;" vertex="1" parent="1">
          <mxGeometry x="250" y="80" width="60" height="30" as="geometry" />
        </mxCell>
        <mxCell id="Ikk_v38gaqMUWb3ELknM-22" style="edgeStyle=orthogonalEdgeStyle;rounded=0;orthogonalLoop=1;jettySize=auto;html=1;exitX=0.5;exitY=1;exitDx=0;exitDy=0;entryX=0.5;entryY=0;entryDx=0;entryDy=0;fontSize=12;" edge="1" parent="1" source="Ikk_v38gaqMUWb3ELknM-16" target="Ikk_v38gaqMUWb3ELknM-20">
          <mxGeometry relative="1" as="geometry" />
        </mxCell>
        <mxCell id="Ikk_v38gaqMUWb3ELknM-16" value="MBConv6, 3x3" style="rounded=0;whiteSpace=wrap;html=1;fontSize=14;rotation=-90;fillColor=#f8cecc;strokeColor=#b85450;" vertex="1" parent="1">
          <mxGeometry x="339" y="118.75" width="110" height="32.5" as="geometry" />
        </mxCell>
        <mxCell id="Ikk_v38gaqMUWb3ELknM-18" value="&lt;font style=&quot;font-size: 12px&quot;&gt;56x56x24&lt;br&gt;&lt;/font&gt;" style="text;html=1;strokeColor=none;fillColor=none;align=center;verticalAlign=middle;whiteSpace=wrap;rounded=0;fontSize=14;rotation=-90;" vertex="1" parent="1">
          <mxGeometry x="325" y="84" width="60" height="30" as="geometry" />
        </mxCell>
        <mxCell id="Ikk_v38gaqMUWb3ELknM-19" value="&lt;font style=&quot;font-size: 12px&quot;&gt;56x56x24&lt;br&gt;&lt;/font&gt;" style="text;html=1;strokeColor=none;fillColor=none;align=center;verticalAlign=middle;whiteSpace=wrap;rounded=0;fontSize=14;rotation=-90;" vertex="1" parent="1">
          <mxGeometry x="400" y="83" width="60" height="30" as="geometry" />
        </mxCell>
        <mxCell id="Ikk_v38gaqMUWb3ELknM-24" style="edgeStyle=orthogonalEdgeStyle;rounded=0;orthogonalLoop=1;jettySize=auto;html=1;exitX=0.5;exitY=1;exitDx=0;exitDy=0;entryX=0.5;entryY=0;entryDx=0;entryDy=0;fontSize=12;" edge="1" parent="1" source="Ikk_v38gaqMUWb3ELknM-20" target="Ikk_v38gaqMUWb3ELknM-23">
          <mxGeometry relative="1" as="geometry" />
        </mxCell>
        <mxCell id="Ikk_v38gaqMUWb3ELknM-20" value="MBConv6, 5x5" style="rounded=0;whiteSpace=wrap;html=1;fontSize=14;rotation=-90;fillColor=#dae8fc;strokeColor=#6c8ebf;" vertex="1" parent="1">
          <mxGeometry x="414" y="119" width="110" height="32.5" as="geometry" />
        </mxCell>
        <mxCell id="Ikk_v38gaqMUWb3ELknM-41" style="edgeStyle=orthogonalEdgeStyle;rounded=0;orthogonalLoop=1;jettySize=auto;html=1;exitX=0.5;exitY=1;exitDx=0;exitDy=0;entryX=0.5;entryY=0;entryDx=0;entryDy=0;fontSize=12;" edge="1" parent="1" source="Ikk_v38gaqMUWb3ELknM-23" target="Ikk_v38gaqMUWb3ELknM-25">
          <mxGeometry relative="1" as="geometry" />
        </mxCell>
        <mxCell id="Ikk_v38gaqMUWb3ELknM-23" value="MBConv6, 5x5" style="rounded=0;whiteSpace=wrap;html=1;fontSize=14;rotation=-90;fillColor=#dae8fc;strokeColor=#6c8ebf;" vertex="1" parent="1">
          <mxGeometry x="490" y="119" width="110" height="32.5" as="geometry" />
        </mxCell>
        <mxCell id="Ikk_v38gaqMUWb3ELknM-42" style="edgeStyle=orthogonalEdgeStyle;rounded=0;orthogonalLoop=1;jettySize=auto;html=1;exitX=0.5;exitY=1;exitDx=0;exitDy=0;entryX=0.5;entryY=0;entryDx=0;entryDy=0;fontSize=12;" edge="1" parent="1" source="Ikk_v38gaqMUWb3ELknM-25" target="Ikk_v38gaqMUWb3ELknM-26">
          <mxGeometry relative="1" as="geometry" />
        </mxCell>
        <mxCell id="Ikk_v38gaqMUWb3ELknM-25" value="MBConv6, 3x3" style="rounded=0;whiteSpace=wrap;html=1;fontSize=14;rotation=-90;fillColor=#f8cecc;strokeColor=#b85450;" vertex="1" parent="1">
          <mxGeometry x="560" y="120" width="110" height="32.5" as="geometry" />
        </mxCell>
        <mxCell id="Ikk_v38gaqMUWb3ELknM-43" style="edgeStyle=orthogonalEdgeStyle;rounded=0;orthogonalLoop=1;jettySize=auto;html=1;exitX=0.5;exitY=1;exitDx=0;exitDy=0;entryX=0.5;entryY=0;entryDx=0;entryDy=0;fontSize=12;" edge="1" parent="1" source="Ikk_v38gaqMUWb3ELknM-26" target="Ikk_v38gaqMUWb3ELknM-27">
          <mxGeometry relative="1" as="geometry" />
        </mxCell>
        <mxCell id="Ikk_v38gaqMUWb3ELknM-26" value="MBConv6, 3x3" style="rounded=0;whiteSpace=wrap;html=1;fontSize=14;rotation=-90;fillColor=#f8cecc;strokeColor=#b85450;" vertex="1" parent="1">
          <mxGeometry x="630" y="120" width="110" height="32.5" as="geometry" />
        </mxCell>
        <mxCell id="Ikk_v38gaqMUWb3ELknM-27" value="MBConv6, 3x3" style="rounded=0;whiteSpace=wrap;html=1;fontSize=14;rotation=-90;fillColor=#f8cecc;strokeColor=#b85450;" vertex="1" parent="1">
          <mxGeometry x="700" y="120" width="110" height="32.5" as="geometry" />
        </mxCell>
        <mxCell id="Ikk_v38gaqMUWb3ELknM-45" style="edgeStyle=orthogonalEdgeStyle;rounded=0;orthogonalLoop=1;jettySize=auto;html=1;exitX=0.5;exitY=1;exitDx=0;exitDy=0;entryX=0.5;entryY=0;entryDx=0;entryDy=0;fontSize=12;" edge="1" parent="1" source="Ikk_v38gaqMUWb3ELknM-28" target="Ikk_v38gaqMUWb3ELknM-29">
          <mxGeometry relative="1" as="geometry" />
        </mxCell>
        <mxCell id="Ikk_v38gaqMUWb3ELknM-28" value="MBConv6, 5x5" style="rounded=0;whiteSpace=wrap;html=1;fontSize=14;rotation=-90;fillColor=#dae8fc;strokeColor=#6c8ebf;" vertex="1" parent="1">
          <mxGeometry x="118.75" y="280" width="110" height="32.5" as="geometry" />
        </mxCell>
        <mxCell id="Ikk_v38gaqMUWb3ELknM-46" style="edgeStyle=orthogonalEdgeStyle;rounded=0;orthogonalLoop=1;jettySize=auto;html=1;exitX=0.5;exitY=1;exitDx=0;exitDy=0;entryX=0.5;entryY=0;entryDx=0;entryDy=0;fontSize=12;" edge="1" parent="1" source="Ikk_v38gaqMUWb3ELknM-29" target="Ikk_v38gaqMUWb3ELknM-30">
          <mxGeometry relative="1" as="geometry" />
        </mxCell>
        <mxCell id="Ikk_v38gaqMUWb3ELknM-29" value="MBConv6, 5x5" style="rounded=0;whiteSpace=wrap;html=1;fontSize=14;rotation=-90;fillColor=#dae8fc;strokeColor=#6c8ebf;" vertex="1" parent="1">
          <mxGeometry x="190" y="280" width="110" height="32.5" as="geometry" />
        </mxCell>
        <mxCell id="Ikk_v38gaqMUWb3ELknM-47" style="edgeStyle=orthogonalEdgeStyle;rounded=0;orthogonalLoop=1;jettySize=auto;html=1;exitX=0.5;exitY=1;exitDx=0;exitDy=0;entryX=0.5;entryY=0;entryDx=0;entryDy=0;fontSize=12;" edge="1" parent="1" source="Ikk_v38gaqMUWb3ELknM-30" target="Ikk_v38gaqMUWb3ELknM-31">
          <mxGeometry relative="1" as="geometry" />
        </mxCell>
        <mxCell id="Ikk_v38gaqMUWb3ELknM-30" value="MBConv6, 5x5" style="rounded=0;whiteSpace=wrap;html=1;fontSize=14;rotation=-90;fillColor=#dae8fc;strokeColor=#6c8ebf;" vertex="1" parent="1">
          <mxGeometry x="262" y="280" width="110" height="32.5" as="geometry" />
        </mxCell>
        <mxCell id="Ikk_v38gaqMUWb3ELknM-48" style="edgeStyle=orthogonalEdgeStyle;rounded=0;orthogonalLoop=1;jettySize=auto;html=1;exitX=0.5;exitY=1;exitDx=0;exitDy=0;entryX=0.5;entryY=0;entryDx=0;entryDy=0;fontSize=12;" edge="1" parent="1" source="Ikk_v38gaqMUWb3ELknM-31" target="Ikk_v38gaqMUWb3ELknM-32">
          <mxGeometry relative="1" as="geometry" />
        </mxCell>
        <mxCell id="Ikk_v38gaqMUWb3ELknM-31" value="MBConv6, 5x5" style="rounded=0;whiteSpace=wrap;html=1;fontSize=14;rotation=-90;fillColor=#dae8fc;strokeColor=#6c8ebf;" vertex="1" parent="1">
          <mxGeometry x="339" y="280" width="110" height="32.5" as="geometry" />
        </mxCell>
        <mxCell id="Ikk_v38gaqMUWb3ELknM-49" style="edgeStyle=orthogonalEdgeStyle;rounded=0;orthogonalLoop=1;jettySize=auto;html=1;exitX=0.5;exitY=1;exitDx=0;exitDy=0;entryX=0.5;entryY=0;entryDx=0;entryDy=0;fontSize=12;" edge="1" parent="1" source="Ikk_v38gaqMUWb3ELknM-32" target="Ikk_v38gaqMUWb3ELknM-33">
          <mxGeometry relative="1" as="geometry" />
        </mxCell>
        <mxCell id="Ikk_v38gaqMUWb3ELknM-32" value="MBConv6, 5x5" style="rounded=0;whiteSpace=wrap;html=1;fontSize=14;rotation=-90;fillColor=#dae8fc;strokeColor=#6c8ebf;" vertex="1" parent="1">
          <mxGeometry x="414" y="280" width="110" height="32.5" as="geometry" />
        </mxCell>
        <mxCell id="Ikk_v38gaqMUWb3ELknM-50" style="edgeStyle=orthogonalEdgeStyle;rounded=0;orthogonalLoop=1;jettySize=auto;html=1;exitX=0.5;exitY=1;exitDx=0;exitDy=0;entryX=0.5;entryY=0;entryDx=0;entryDy=0;fontSize=12;" edge="1" parent="1" source="Ikk_v38gaqMUWb3ELknM-33" target="Ikk_v38gaqMUWb3ELknM-34">
          <mxGeometry relative="1" as="geometry" />
        </mxCell>
        <mxCell id="Ikk_v38gaqMUWb3ELknM-33" value="MBConv6, 5x5" style="rounded=0;whiteSpace=wrap;html=1;fontSize=14;rotation=-90;fillColor=#dae8fc;strokeColor=#6c8ebf;" vertex="1" parent="1">
          <mxGeometry x="490" y="280" width="110" height="32.5" as="geometry" />
        </mxCell>
        <mxCell id="Ikk_v38gaqMUWb3ELknM-51" style="edgeStyle=orthogonalEdgeStyle;rounded=0;orthogonalLoop=1;jettySize=auto;html=1;exitX=0.5;exitY=1;exitDx=0;exitDy=0;entryX=0.5;entryY=0;entryDx=0;entryDy=0;fontSize=12;" edge="1" parent="1" source="Ikk_v38gaqMUWb3ELknM-34" target="Ikk_v38gaqMUWb3ELknM-35">
          <mxGeometry relative="1" as="geometry" />
        </mxCell>
        <mxCell id="Ikk_v38gaqMUWb3ELknM-34" value="MBConv6, 5x5" style="rounded=0;whiteSpace=wrap;html=1;fontSize=14;rotation=-90;fillColor=#dae8fc;strokeColor=#6c8ebf;" vertex="1" parent="1">
          <mxGeometry x="560" y="280" width="110" height="32.5" as="geometry" />
        </mxCell>
        <mxCell id="Ikk_v38gaqMUWb3ELknM-35" value="MBConv6, 3x3" style="rounded=0;whiteSpace=wrap;html=1;fontSize=14;rotation=-90;fillColor=#f8cecc;strokeColor=#b85450;" vertex="1" parent="1">
          <mxGeometry x="630" y="280" width="110" height="32.5" as="geometry" />
        </mxCell>
        <mxCell id="Ikk_v38gaqMUWb3ELknM-53" style="edgeStyle=orthogonalEdgeStyle;rounded=0;orthogonalLoop=1;jettySize=auto;html=1;exitX=0.5;exitY=1;exitDx=0;exitDy=0;entryX=0.5;entryY=0;entryDx=0;entryDy=0;fontSize=12;" edge="1" parent="1" source="Ikk_v38gaqMUWb3ELknM-36" target="Ikk_v38gaqMUWb3ELknM-37">
          <mxGeometry relative="1" as="geometry" />
        </mxCell>
        <mxCell id="Ikk_v38gaqMUWb3ELknM-36" value="conv 1x1" style="rounded=0;whiteSpace=wrap;html=1;fontSize=14;rotation=-90;" vertex="1" parent="1">
          <mxGeometry x="118.75" y="430" width="110" height="32.5" as="geometry" />
        </mxCell>
        <mxCell id="Ikk_v38gaqMUWb3ELknM-54" style="edgeStyle=orthogonalEdgeStyle;rounded=0;orthogonalLoop=1;jettySize=auto;html=1;exitX=0.5;exitY=1;exitDx=0;exitDy=0;entryX=0.5;entryY=0;entryDx=0;entryDy=0;fontSize=12;" edge="1" parent="1" source="Ikk_v38gaqMUWb3ELknM-37" target="Ikk_v38gaqMUWb3ELknM-38">
          <mxGeometry relative="1" as="geometry" />
        </mxCell>
        <mxCell id="Ikk_v38gaqMUWb3ELknM-37" value="Avg Pool" style="rounded=0;whiteSpace=wrap;html=1;fontSize=12;rotation=-90;" vertex="1" parent="1">
          <mxGeometry x="190" y="434.38" width="120" height="23.75" as="geometry" />
        </mxCell>
        <mxCell id="Ikk_v38gaqMUWb3ELknM-38" value="FC" style="rounded=0;whiteSpace=wrap;html=1;fontSize=12;rotation=-90;" vertex="1" parent="1">
          <mxGeometry x="262" y="436.25" width="120" height="20" as="geometry" />
        </mxCell>
        <mxCell id="Ikk_v38gaqMUWb3ELknM-40" value="&lt;font style=&quot;font-size: 12px&quot;&gt;28X28X40&lt;br&gt;&lt;/font&gt;" style="text;html=1;strokeColor=none;fillColor=none;align=center;verticalAlign=middle;whiteSpace=wrap;rounded=0;fontSize=14;rotation=-90;" vertex="1" parent="1">
          <mxGeometry x="477" y="84" width="60" height="30" as="geometry" />
        </mxCell>
        <mxCell id="Ikk_v38gaqMUWb3ELknM-44" value="" style="endArrow=classic;html=1;rounded=0;fontSize=12;entryX=0.5;entryY=0;entryDx=0;entryDy=0;" edge="1" parent="1" target="Ikk_v38gaqMUWb3ELknM-28">
          <mxGeometry width="50" height="50" relative="1" as="geometry">
            <mxPoint x="100" y="296" as="sourcePoint" />
            <mxPoint x="450" y="200" as="targetPoint" />
          </mxGeometry>
        </mxCell>
        <mxCell id="Ikk_v38gaqMUWb3ELknM-52" value="" style="endArrow=classic;html=1;rounded=0;fontSize=12;entryX=0.5;entryY=0;entryDx=0;entryDy=0;" edge="1" parent="1" target="Ikk_v38gaqMUWb3ELknM-36">
          <mxGeometry width="50" height="50" relative="1" as="geometry">
            <mxPoint x="100" y="446" as="sourcePoint" />
            <mxPoint x="450" y="300" as="targetPoint" />
          </mxGeometry>
        </mxCell>
        <mxCell id="Ikk_v38gaqMUWb3ELknM-55" value="&lt;font size=&quot;1&quot;&gt;&lt;b style=&quot;font-size: 17px&quot;&gt;Efficientnet-B0网络结构&lt;/b&gt;&lt;/font&gt;" style="text;html=1;strokeColor=none;fillColor=none;align=center;verticalAlign=middle;whiteSpace=wrap;rounded=0;fontSize=12;" vertex="1" parent="1">
          <mxGeometry x="414" y="426.25" width="216" height="30" as="geometry" />
        </mxCell>
        <mxCell id="Ikk_v38gaqMUWb3ELknM-56" value="&lt;font style=&quot;font-size: 12px&quot;&gt;28X28X40&lt;br&gt;&lt;/font&gt;" style="text;html=1;strokeColor=none;fillColor=none;align=center;verticalAlign=middle;whiteSpace=wrap;rounded=0;fontSize=14;rotation=-90;" vertex="1" parent="1">
          <mxGeometry x="548" y="90" width="60" height="30" as="geometry" />
        </mxCell>
        <mxCell id="Ikk_v38gaqMUWb3ELknM-57" value="&lt;font style=&quot;font-size: 12px&quot;&gt;28X28X80&lt;br&gt;&lt;/font&gt;" style="text;html=1;strokeColor=none;fillColor=none;align=center;verticalAlign=middle;whiteSpace=wrap;rounded=0;fontSize=14;rotation=-90;" vertex="1" parent="1">
          <mxGeometry x="620" y="87" width="60" height="30" as="geometry" />
        </mxCell>
        <mxCell id="Ikk_v38gaqMUWb3ELknM-58" value="&lt;font style=&quot;font-size: 12px&quot;&gt;28X28X80&lt;br&gt;&lt;/font&gt;" style="text;html=1;strokeColor=none;fillColor=none;align=center;verticalAlign=middle;whiteSpace=wrap;rounded=0;fontSize=14;rotation=-90;" vertex="1" parent="1">
          <mxGeometry x="690" y="90" width="60" height="30" as="geometry" />
        </mxCell>
        <mxCell id="Ikk_v38gaqMUWb3ELknM-59" value="&lt;font style=&quot;font-size: 12px&quot;&gt;28X28X80&lt;br&gt;&lt;/font&gt;" style="text;html=1;strokeColor=none;fillColor=none;align=center;verticalAlign=middle;whiteSpace=wrap;rounded=0;fontSize=14;rotation=-90;" vertex="1" parent="1">
          <mxGeometry x="100" y="240" width="60" height="30" as="geometry" />
        </mxCell>
        <mxCell id="Ikk_v38gaqMUWb3ELknM-60" value="&lt;font style=&quot;font-size: 12px&quot;&gt;14x14x112&lt;br&gt;&lt;/font&gt;" style="text;html=1;strokeColor=none;fillColor=none;align=center;verticalAlign=middle;whiteSpace=wrap;rounded=0;fontSize=14;rotation=-90;" vertex="1" parent="1">
          <mxGeometry x="180" y="247" width="60" height="30" as="geometry" />
        </mxCell>
        <mxCell id="Ikk_v38gaqMUWb3ELknM-61" value="&lt;font style=&quot;font-size: 12px&quot;&gt;14x14x112&lt;br&gt;&lt;/font&gt;" style="text;html=1;strokeColor=none;fillColor=none;align=center;verticalAlign=middle;whiteSpace=wrap;rounded=0;fontSize=14;rotation=-90;" vertex="1" parent="1">
          <mxGeometry x="250" y="250" width="60" height="30" as="geometry" />
        </mxCell>
        <mxCell id="Ikk_v38gaqMUWb3ELknM-62" value="&lt;font style=&quot;font-size: 12px&quot;&gt;14x14x112&lt;br&gt;&lt;/font&gt;" style="text;html=1;strokeColor=none;fillColor=none;align=center;verticalAlign=middle;whiteSpace=wrap;rounded=0;fontSize=14;rotation=-90;" vertex="1" parent="1">
          <mxGeometry x="325" y="248" width="60" height="30" as="geometry" />
        </mxCell>
        <mxCell id="Ikk_v38gaqMUWb3ELknM-63" value="&lt;font style=&quot;font-size: 12px&quot;&gt;7x7x192&lt;br&gt;&lt;/font&gt;" style="text;html=1;strokeColor=none;fillColor=none;align=center;verticalAlign=middle;whiteSpace=wrap;rounded=0;fontSize=14;rotation=-90;" vertex="1" parent="1">
          <mxGeometry x="400" y="251" width="60" height="30" as="geometry" />
        </mxCell>
        <mxCell id="Ikk_v38gaqMUWb3ELknM-64" value="&lt;font style=&quot;font-size: 12px&quot;&gt;7x7x192&lt;br&gt;&lt;/font&gt;" style="text;html=1;strokeColor=none;fillColor=none;align=center;verticalAlign=middle;whiteSpace=wrap;rounded=0;fontSize=14;rotation=-90;" vertex="1" parent="1">
          <mxGeometry x="477" y="252" width="60" height="30" as="geometry" />
        </mxCell>
        <mxCell id="Ikk_v38gaqMUWb3ELknM-65" value="&lt;font style=&quot;font-size: 12px&quot;&gt;7x7x192&lt;br&gt;&lt;/font&gt;" style="text;html=1;strokeColor=none;fillColor=none;align=center;verticalAlign=middle;whiteSpace=wrap;rounded=0;fontSize=14;rotation=-90;" vertex="1" parent="1">
          <mxGeometry x="550" y="252" width="60" height="30" as="geometry" />
        </mxCell>
        <mxCell id="Ikk_v38gaqMUWb3ELknM-66" value="&lt;font style=&quot;font-size: 12px&quot;&gt;7x7x192&lt;br&gt;&lt;/font&gt;" style="text;html=1;strokeColor=none;fillColor=none;align=center;verticalAlign=middle;whiteSpace=wrap;rounded=0;fontSize=14;rotation=-90;" vertex="1" parent="1">
          <mxGeometry x="620" y="253" width="60" height="30" as="geometry" />
        </mxCell>
        <mxCell id="Ikk_v38gaqMUWb3ELknM-67" value="&lt;font style=&quot;font-size: 12px&quot;&gt;7x7x320&lt;br&gt;&lt;/font&gt;" style="text;html=1;strokeColor=none;fillColor=none;align=center;verticalAlign=middle;whiteSpace=wrap;rounded=0;fontSize=14;rotation=-90;" vertex="1" parent="1">
          <mxGeometry x="100" y="396.25" width="60" height="30" as="geometry" />
        </mxCell>
      </root>
    </mxGraphModel>
  </diagram>
</mxfile>
